0
SECTION
2
HEADER
9
$INSUNITS
70
4
9
$ACADVER
1
AC1014
9
$HANDSEED
5
FFFF
0
ENDSEC
0
SECTION
2
TABLES
0
TABLE
2
VPORT
5
8
100
AcDbSymbolTable
0
ENDTAB
0
TABLE
2
LTYPE
5
5
100
AcDbSymbolTable
0
LTYPE
5
14
100
AcDbSymbolTableRecord
100
AcDbLinetypeTableRecord
2
BYBLOCK
70
0
0
LTYPE
5
15
100
AcDbSymbolTableRecord
100
AcDbLinetypeTableRecord
2
BYLAYER
70
0
0
ENDTAB
0
TABLE
2
LAYER
5
2
100
AcDbSymbolTable
70
2
0
LAYER
5
50
100
AcDbSymbolTableRecord
100
AcDbLayerTableRecord
2
0
70
0
6
CONTINUOUS
0
ENDTAB
0
TABLE
2
STYLE
5
3
100
AcDbSymbolTable
70
1
0
STYLE
5
11
100
AcDbSymbolTableRecord
100
AcDbTextStyleTableRecord
2
STANDARD
70
0
0
ENDTAB
0
TABLE
2
VIEW
5
6
100
AcDbSymbolTable
70
0
0
ENDTAB
0
TABLE
2
UCS
5
7
100
AcDbSymbolTable
70
0
0
ENDTAB
0
TABLE
2
APPID
5
9
100
AcDbSymbolTable
70
2
0
APPID
5
12
100
AcDbSymbolTableRecord
100
AcDbRegAppTableRecord
2
ACAD
70
0
0
ENDTAB
0
TABLE
2
DIMSTYLE
5
A
100
AcDbSymbolTable
70
1
0
ENDTAB
0
TABLE
2
BLOCK_RECORD
5
1
100
AcDbSymbolTable
70
1
0
BLOCK_RECORD
5
1F
100
AcDbSymbolTableRecord
100
AcDbBlockTableRecord
2
*MODEL_SPACE
0
BLOCK_RECORD
5
1B
100
AcDbSymbolTableRecord
100
AcDbBlockTableRecord
2
*PAPER_SPACE
0
ENDTAB
0
ENDSEC
0
SECTION
2
BLOCKS
0
BLOCK
5
20
100
AcDbEntity
100
AcDbBlockBegin
2
*MODEL_SPACE
0
ENDBLK
5
21
100
AcDbEntity
100
AcDbBlockEnd
0
BLOCK
5
1C
100
AcDbEntity
100
AcDbBlockBegin
2
*PAPER_SPACE
0
ENDBLK
5
1D
100
AcDbEntity
100
AcDbBlockEnd
0
ENDSEC
0
SECTION
2
ENTITIES
0
CIRCLE
5
100
100
AcDbEntity
8
0
100
AcDbCircle
10
33.200022002543569
20
-0.00022438809316294162
30
0
40
1.4999999999999991
210
0
220
0
230
1
0
CIRCLE
5
101
100
AcDbEntity
8
0
100
AcDbCircle
10
-55.299977997456438
20
-0.00022438809316738251
30
0
40
2.1000000000000085
210
0
220
0
230
1
0
CIRCLE
5
102
100
AcDbEntity
8
0
100
AcDbCircle
10
55.200022002543577
20
-0.00022438809316571717
30
0
40
1.5000000000000036
210
0
220
0
230
1
0
SPLINE
5
103
100
AcDbEntity
8
0
100
AcDbSpline
70
4
71
5
72
16
73
10
74
0
42
0.000000001
43
0.0000000001
44
0.0000000001
40
-1
40
-1
40
-1
40
-1
40
-1
40
-1
40
-0.80000000000000004
40
-0.60000000000000009
40
-0.40000000000000002
40
-0.20000000000000001
40
-0.036144294723539465
40
-0.036144294723539465
40
-0.036144294723539465
40
-0.036144294723539465
40
-0.036144294723539465
40
-0.036144294723539465
41
1
41
1
41
1
41
1
41
1
41
1
41
1
41
1
41
1
41
1
10
-55.012130238120264
20
-5.4926868292433291
30
0
10
-53.006321448512139
20
-5.3875669809504432
30
0
10
-48.356341776887142
20
-5.2081111096554302
30
0
10
-39.467809166061528
20
-5.0312233380023983
30
0
10
-24.144486056802243
20
-4.9784213073139707
30
0
10
-0.79160275551378945
20
-5.2737022980539239
30
0
10
21.625271551567195
20
-5.9012832774301334
30
0
10
40.763665587334316
20
-6.6676185774042711
30
0
10
54.311868331222321
20
-7.3066721055075732
30
0
10
60.65973654236344
20
-7.6243279566691156
30
0
0
ARC
5
104
100
AcDbEntity
8
0
100
AcDbCircle
10
-55.299977997456438
20
-0.00022438809316738251
30
0
40
5.4999999999999947
210
0
220
-0
230
1
100
AcDbArc
50
87.000000000000327
51
272.99999999999977
0
SPLINE
5
105
100
AcDbEntity
8
0
100
AcDbSpline
70
4
71
5
72
16
73
10
74
0
42
0.000000001
43
0.0000000001
44
0.0000000001
40
-0.962897500464171
40
-0.962897500464171
40
-0.962897500464171
40
-0.962897500464171
40
-0.962897500464171
40
-0.962897500464171
40
-0.80000000000000004
40
-0.60000000000000009
40
-0.40000000000000002
40
-0.20000000000000001
40
0
40
0
40
0
40
0
40
0
40
0
41
1
41
1
41
1
41
1
41
1
41
1
41
1
41
1
41
1
41
1
10
60.660432907350305
20
7.6244917161069292
30
0
10
54.505718702842699
20
7.317500270102518
30
0
10
41.273091175723941
20
6.6965523938584992
30
0
10
22.378817796499632
20
5.9468380864251538
30
0
10
-0.1057058265105848
20
5.3231285108655282
30
0
10
-23.873091886669719
20
5.0143976450263352
30
0
10
-39.515497585611854
20
5.0508562830899582
30
0
10
-48.468681001508997
20
5.2167495347659818
30
0
10
-53.060640210592553
20
5.3899653574207962
30
0
10
-55.012130238120264
20
5.4922380530569832
30
0
0
SPLINE
5
106
100
AcDbEntity
8
0
100
AcDbSpline
70
0
71
3
72
18
73
14
74
0
42
0.000000001
43
0.0000000001
44
0.0000000001
40
0
40
0
40
0
40
0
40
0.039064447338692784
40
0.039064447338692784
40
0.078128894677385596
40
0.078128894677385596
40
0.11719334201607837
40
0.11719334201607837
40
0.156257789354771
40
0.156257789354771
40
0.19532223669346377
40
0.19532223669346377
40
0.23523510184547808
40
0.23523510184547808
40
0.23523510184547808
40
0.23523510184547808
10
60.660432907350305
20
7.6244917161069292
30
0
10
60.790486051271031
20
7.6309786465123093
30
0
10
60.920562858007486
20
7.6120012873677503
30
0
10
61.166120530298883
20
7.5252543472612841
30
0
10
61.279253730667435
20
7.4583141143275302
30
0
10
61.473493002628899
20
7.2848358526724164
30
0
10
61.552742040913273
20
7.1799563706854395
30
0
10
61.666577540627202
20
6.9457234074973346
30
0
10
61.700075672634355
20
6.8186093210911149
30
0
10
61.716461682140761
20
6.5586956801804162
30
0
10
61.69919290045808
20
6.4283810417469232
30
0
10
61.614768850429904
20
6.1790274759864783
30
0
10
61.547380897412751
20
6.0627836718770887
30
0
10
61.459227244701673
20
5.9631375858818476
30
0
0
ARC
5
107
100
AcDbEntity
8
0
100
AcDbCircle
10
68.200022002543591
20
-0.0002243880931668274
30
0
40
9.0000000000000142
210
0
220
0
230
1
100
AcDbArc
50
138.50185690470812
51
221.49351922859722
0
SPLINE
5
108
100
AcDbEntity
8
0
100
AcDbSpline
70
0
71
3
72
18
73
14
74
0
42
0.000000001
43
0.0000000001
44
0.0000000001
40
0
40
0
40
0
40
0
40
0.039064447338692486
40
0.039064447338692486
40
0.078128894677385236
40
0.078128894677385236
40
0.11719334201607787
40
0.11719334201607787
40
0.15625778935477072
40
0.15625778935477072
40
0.19532223669346341
40
0.19532223669346341
40
0.23524329799395621
40
0.23524329799395621
40
0.23524329799395621
40
0.23524329799395621
10
61.458746013215737
20
-5.9630423490669866
30
0
10
61.545017934781171
20
-6.0605772456894647
30
0
10
61.611414315590636
20
-6.1740304802236103
30
0
10
61.69698148933481
20
-6.4200017403668124
30
0
10
61.715334213450802
20
-6.5501681466642054
30
0
10
61.701111896553549
20
-6.8102091583163569
30
0
10
61.668672828641611
20
-6.9375976298664179
30
0
10
61.556790669614855
20
-7.172769874254465
30
0
10
61.478417232920819
20
-7.2783052722573256
30
0
10
61.285628456657633
20
-7.4533940776845835
30
0
10
61.173056282867563
20
-7.5212735406983224
30
0
10
60.925544751106159
20
-7.6110346014869856
30
0
10
60.792640446017018
20
-7.6309786465123119
30
0
10
60.65973654236344
20
-7.6243279566691182
30
0
0
ENDSEC
0
SECTION
2
OBJECTS
0
DICTIONARY
5
C
100
AcDbDictionary
3
ACAD_GROUP
350
D
3
ACAD_MLINESTYLE
350
17
0
DICTIONARY
5
D
100
AcDbDictionary
0
DICTIONARY
5
1A
330
C
100
AcDbDictionary
0
DICTIONARY
5
17
100
AcDbDictionary
0
ENDSEC
0
EOF
