0
SECTION
2
HEADER
9
$INSUNITS
70
4
9
$ACADVER
1
AC1014
9
$HANDSEED
5
FFFF
0
ENDSEC
0
SECTION
2
TABLES
0
TABLE
2
VPORT
5
8
100
AcDbSymbolTable
0
ENDTAB
0
TABLE
2
LTYPE
5
5
100
AcDbSymbolTable
0
LTYPE
5
14
100
AcDbSymbolTableRecord
100
AcDbLinetypeTableRecord
2
BYBLOCK
70
0
0
LTYPE
5
15
100
AcDbSymbolTableRecord
100
AcDbLinetypeTableRecord
2
BYLAYER
70
0
0
ENDTAB
0
TABLE
2
LAYER
5
2
100
AcDbSymbolTable
70
2
0
LAYER
5
50
100
AcDbSymbolTableRecord
100
AcDbLayerTableRecord
2
0
70
0
6
CONTINUOUS
0
ENDTAB
0
TABLE
2
STYLE
5
3
100
AcDbSymbolTable
70
1
0
STYLE
5
11
100
AcDbSymbolTableRecord
100
AcDbTextStyleTableRecord
2
STANDARD
70
0
0
ENDTAB
0
TABLE
2
VIEW
5
6
100
AcDbSymbolTable
70
0
0
ENDTAB
0
TABLE
2
UCS
5
7
100
AcDbSymbolTable
70
0
0
ENDTAB
0
TABLE
2
APPID
5
9
100
AcDbSymbolTable
70
2
0
APPID
5
12
100
AcDbSymbolTableRecord
100
AcDbRegAppTableRecord
2
ACAD
70
0
0
ENDTAB
0
TABLE
2
DIMSTYLE
5
A
100
AcDbSymbolTable
70
1
0
ENDTAB
0
TABLE
2
BLOCK_RECORD
5
1
100
AcDbSymbolTable
70
1
0
BLOCK_RECORD
5
1F
100
AcDbSymbolTableRecord
100
AcDbBlockTableRecord
2
*MODEL_SPACE
0
BLOCK_RECORD
5
1B
100
AcDbSymbolTableRecord
100
AcDbBlockTableRecord
2
*PAPER_SPACE
0
ENDTAB
0
ENDSEC
0
SECTION
2
BLOCKS
0
BLOCK
5
20
100
AcDbEntity
100
AcDbBlockBegin
2
*MODEL_SPACE
0
ENDBLK
5
21
100
AcDbEntity
100
AcDbBlockEnd
0
BLOCK
5
1C
100
AcDbEntity
100
AcDbBlockBegin
2
*PAPER_SPACE
0
ENDBLK
5
1D
100
AcDbEntity
100
AcDbBlockEnd
0
ENDSEC
0
SECTION
2
ENTITIES
0
CIRCLE
5
100
100
AcDbEntity
8
0
100
AcDbCircle
10
10.082270379041526
20
39.329508155765033
30
0
40
2.0999999999999996
210
0
220
0
230
1
0
CIRCLE
5
101
100
AcDbEntity
8
0
100
AcDbCircle
10
10.082270379041526
20
74.329508155765026
30
0
40
1.6999999999999993
210
0
220
0
230
1
0
CIRCLE
5
102
100
AcDbEntity
8
0
100
AcDbCircle
10
-7.0893024962122864
20
-73.300711448903982
30
0
40
1.5500000000000003
210
0
220
0
230
1
0
CIRCLE
5
103
100
AcDbEntity
8
0
100
AcDbCircle
10
-11.331943183331569
20
-69.058070761784705
30
0
40
1.5500000000000003
210
0
220
0
230
1
0
SPLINE
5
104
100
AcDbEntity
8
0
100
AcDbSpline
70
0
71
3
72
11
73
7
74
0
42
0.000000001
43
0.0000000001
44
0.0000000001
40
0
40
0
40
0
40
0
40
0.36940213009047373
40
0.36940213009047373
40
0.36940213009047373
40
0.73880426018094747
40
0.73880426018094747
40
0.73880426018094747
40
0.73880426018094747
10
15.057005364349813
20
36.983767677194116
30
0
10
14.531846186085129
20
35.87003503676123
30
0
10
14.11066112862434
20
34.710179584545379
30
0
10
13.798818354918939
20
33.51898411722317
30
0
10
13.486975581213542
20
32.327788649900967
30
0
10
13.285805595244222
20
31.110335505255058
30
0
10
13.197872384613351
20
29.882141584349494
30
0
0
SPLINE
5
105
100
AcDbEntity
8
0
100
AcDbSpline
70
0
71
3
72
14
73
10
74
0
42
0.000000001
43
0.0000000001
44
0.0000000001
40
-1
40
-1
40
-1
40
-1
40
-0.73355651678130274
40
-0.73355651678130274
40
-0.73355651678130274
40
-0.39070928141715194
40
-0.39070928141715194
40
-0.39070928141715194
40
-0.32997330830346794
40
-0.32997330830346794
40
-0.32997330830346794
40
-0.32997330830346794
10
-3.1562061109710693
20
-73.698242650636047
30
0
10
0.2794320322461219
20
-60.876266543727759
30
0
10
3.1569094263288733
20
-47.319053544350844
30
0
10
5.5492393303840792
20
-33.381896992729509
30
0
10
8.6275795614006778
20
-15.448204132849392
30
0
10
10.938770452968647
20
3.0855888902517314
30
0
10
12.465123313526099
20
20.650382462761311
30
0
10
12.735519328831128
20
23.762015633827271
30
0
10
12.980238154301787
20
26.842368138891011
30
0
10
13.197872384613351
20
29.882141584349494
30
0
0
ARC
5
106
100
AcDbEntity
8
0
100
AcDbCircle
10
-9.9177296209584735
20
-71.88649788653089
30
0
40
7.0000442331726873
210
-0
220
0
230
1
100
AcDbArc
50
315.00000000000006
51
345.00000000000011
0
ARC
5
107
100
AcDbEntity
8
0
100
AcDbCircle
10
-7.0893024962122908
20
-74.714925011277074
30
0
40
3.0000442331726918
210
0
220
0
230
1
100
AcDbArc
50
224.99999999999991
51
315.00000000000011
0
LINE
5
108
100
AcDbEntity
8
0
100
AcDbLine
10
-15.120247728809233
20
-70.92668302095214
30
0
11
-9.2106541173482963
21
-76.836276632413075
31
0
0
SPLINE
5
109
100
AcDbEntity
8
0
100
AcDbSpline
70
0
71
3
72
17
73
13
74
0
42
0.000000001
43
0.0000000001
44
0.0000000001
40
0
40
0
40
0
40
0
40
0.25
40
0.25
40
0.25
40
0.5
40
0.5
40
0.5
40
0.75
40
0.75
40
0.75
40
1
40
1
40
1
40
1
10
-15.120247728809233
20
-70.92668302095214
30
0
10
-15.324708768621191
20
-70.722221981140166
30
0
10
-15.499389597483908
20
-70.488008521115717
30
0
10
-15.637056445623665
20
-70.233748507056845
30
0
10
-15.774723293763426
20
-69.979488492997987
30
0
10
-15.875376076702034
20
-69.705182081189292
30
0
10
-15.934831180605904
20
-69.422219273352766
30
0
10
-15.994286284509778
20
-69.139256465516226
30
0
10
-16.012543672628695
20
-68.847637436555985
30
0
10
-15.988849105313017
20
-68.559472755677703
30
0
10
-15.965154537997337
20
-68.271308074799421
30
0
10
-15.899508029682419
20
-67.986597919071102
30
0
10
-15.794625366732554
20
-67.717138718792981
30
0
0
SPLINE
5
110
100
AcDbEntity
8
0
100
AcDbSpline
70
0
71
3
72
14
73
10
74
0
42
0.000000001
43
0.0000000001
44
0.0000000001
40
0.30372425349379956
40
0.30372425349379956
40
0.30372425349379956
40
0.30372425349379956
40
0.64391095896339423
40
0.64391095896339423
40
0.64391095896339423
40
0.86820700887711832
40
0.86820700887711832
40
0.86820700887711832
40
0.98409766443298907
40
0.98409766443298907
40
0.98409766443298907
40
0.98409766443298907
10
5.3582407373501564
20
30.65644704393182
30
0
10
3.5331515068381969
20
12.79678539653208
30
0
10
0.28775010549053404
20
-6.3539230265370872
30
0
10
-3.4563027658825862
20
-23.727572618371077
30
0
10
-5.9248773933298811
20
-35.182579276124912
30
0
10
-8.6173028709373849
20
-45.833619835206953
30
0
10
-11.402543165844802
20
-54.920441238584161
30
0
10
-12.841638164537857
20
-59.6154757243077
30
0
10
-14.307480744643398
20
-63.89644243500782
30
0
10
-15.794625366732545
20
-67.717138718792953
30
0
0
SPLINE
5
111
100
AcDbEntity
8
0
100
AcDbSpline
70
0
71
3
72
11
73
7
74
0
42
0.000000001
43
0.0000000001
44
0.0000000001
40
0
40
0
40
0
40
0
40
0.36551265538284983
40
0.36551265538284983
40
0.36551265538284983
40
0.73102531076569943
40
0.73102531076569943
40
0.73102531076569943
40
0.73102531076569943
10
5.3582407373501582
20
30.65644704393182
30
0
10
5.482101909938554
20
31.868507581409435
30
0
10
5.4949485218337548
20
33.089354836677686
30
0
10
5.3966202554367992
20
34.303753407416657
30
0
10
5.2982919890398428
20
35.518151978155629
30
0
10
5.0891995777930781
20
36.721029120548906
30
0
10
4.7719523628680847
20
37.897373687930347
30
0
0
ARC
5
112
100
AcDbEntity
8
0
100
AcDbCircle
10
10.082270379041526
20
39.329508155765033
30
0
40
5.5000442331727086
210
0
220
0
230
1
100
AcDbArc
50
156.43327098907849
51
195.09296670681664
0
SPLINE
5
113
100
AcDbEntity
8
0
100
AcDbSpline
70
0
71
3
72
11
73
7
74
0
42
0.000000001
43
0.0000000001
44
0.0000000001
40
0
40
0
40
0
40
0
40
0.36986621927279445
40
0.36986621927279445
40
0.36986621927279445
40
0.73973243854558901
40
0.73973243854558901
40
0.73973243854558901
40
0.73973243854558901
10
5.0409570433483895
20
41.528518482757363
30
0
10
5.5338851014243158
20
42.658574473042009
30
0
10
5.9212665700990721
20
43.831793017757235
30
0
10
6.198151758647751
20
45.033183547093586
30
0
10
6.4750369471964309
20
46.234574076429944
30
0
10
6.6402415293932906
20
47.458997860075733
30
0
10
6.6916546360968461
20
48.690810063325813
30
0
0
SPLINE
5
114
100
AcDbEntity
8
0
100
AcDbSpline
70
0
71
3
72
8
73
4
74
0
42
0.000000001
43
0.0000000001
44
0.0000000001
40
0
40
0
40
0
40
0
40
0.18569252686393942
40
0.18569252686393942
40
0.18569252686393942
40
0.18569252686393942
10
6.104138806709674
20
73.911389679068847
30
0
10
6.9067321027453854
20
66.275224552069304
30
0
10
7.0720414481174192
20
57.804538975109097
30
0
10
6.6916546361027338
20
48.69081006346687
30
0
0
ARC
5
115
100
AcDbEntity
8
0
100
AcDbCircle
10
10.082270379041526
20
74.329508155765026
30
0
40
4.0000442331727051
210
0
220
-0
230
1
100
AcDbArc
50
3.0000000000000449
51
185.99999999999991
0
SPLINE
5
116
100
AcDbEntity
8
0
100
AcDbSpline
70
0
71
3
72
8
73
4
74
0
42
0.000000001
43
0.0000000001
44
0.0000000001
40
-0.20288758579539168
40
-0.20288758579539168
40
-0.20288758579539168
40
-0.20288758579539168
40
0
40
0
40
0
40
0
10
14.192835324884566
20
48.349656054234195
30
0
10
14.516390416296668
20
57.808910411938115
30
0
10
14.493091514132521
20
66.596162786663683
30
0
10
14.0768326906125
20
74.538854295722189
30
0
0
SPLINE
5
117
100
AcDbEntity
8
0
100
AcDbSpline
70
0
71
3
72
11
73
7
74
0
42
0.000000001
43
0.0000000001
44
0.0000000001
40
0
40
0
40
0
40
0
40
0.36749165114590054
40
0.36749165114590054
40
0.36749165114590054
40
0.73498330229180264
40
0.73498330229180264
40
0.73498330229180264
40
0.73498330229180264
10
14.192835324884562
20
48.349656054234167
30
0
10
14.150959566593997
20
47.125402566633653
30
0
10
14.221647953330734
20
45.899886563735144
30
0
10
14.404008795656516
20
44.688567157376653
30
0
10
14.586369637982299
20
43.477247751018162
30
0
10
14.879632909072917
20
42.28523979164499
30
0
10
15.280099277630338
20
41.127579708248795
30
0
0
ARC
5
118
100
AcDbEntity
8
0
100
AcDbCircle
10
10.082270379041526
20
39.329508155765033
30
0
40
5.5000442331727086
210
-0
220
0
230
1
100
AcDbArc
50
-25.245318573652749
51
19.081906201090924
0
ENDSEC
0
SECTION
2
OBJECTS
0
DICTIONARY
5
C
100
AcDbDictionary
3
ACAD_GROUP
350
D
3
ACAD_MLINESTYLE
350
17
0
DICTIONARY
5
D
100
AcDbDictionary
0
DICTIONARY
5
1A
330
C
100
AcDbDictionary
0
DICTIONARY
5
17
100
AcDbDictionary
0
ENDSEC
0
EOF
