0
SECTION
2
HEADER
9
$INSUNITS
70
4
9
$ACADVER
1
AC1014
9
$HANDSEED
5
FFFF
0
ENDSEC
0
SECTION
2
TABLES
0
TABLE
2
VPORT
5
8
100
AcDbSymbolTable
0
ENDTAB
0
TABLE
2
LTYPE
5
5
100
AcDbSymbolTable
0
LTYPE
5
14
100
AcDbSymbolTableRecord
100
AcDbLinetypeTableRecord
2
BYBLOCK
70
0
0
LTYPE
5
15
100
AcDbSymbolTableRecord
100
AcDbLinetypeTableRecord
2
BYLAYER
70
0
0
ENDTAB
0
TABLE
2
LAYER
5
2
100
AcDbSymbolTable
70
2
0
LAYER
5
50
100
AcDbSymbolTableRecord
100
AcDbLayerTableRecord
2
0
70
0
6
CONTINUOUS
0
ENDTAB
0
TABLE
2
STYLE
5
3
100
AcDbSymbolTable
70
1
0
STYLE
5
11
100
AcDbSymbolTableRecord
100
AcDbTextStyleTableRecord
2
STANDARD
70
0
0
ENDTAB
0
TABLE
2
VIEW
5
6
100
AcDbSymbolTable
70
0
0
ENDTAB
0
TABLE
2
UCS
5
7
100
AcDbSymbolTable
70
0
0
ENDTAB
0
TABLE
2
APPID
5
9
100
AcDbSymbolTable
70
2
0
APPID
5
12
100
AcDbSymbolTableRecord
100
AcDbRegAppTableRecord
2
ACAD
70
0
0
ENDTAB
0
TABLE
2
DIMSTYLE
5
A
100
AcDbSymbolTable
70
1
0
ENDTAB
0
TABLE
2
BLOCK_RECORD
5
1
100
AcDbSymbolTable
70
1
0
BLOCK_RECORD
5
1F
100
AcDbSymbolTableRecord
100
AcDbBlockTableRecord
2
*MODEL_SPACE
0
BLOCK_RECORD
5
1B
100
AcDbSymbolTableRecord
100
AcDbBlockTableRecord
2
*PAPER_SPACE
0
ENDTAB
0
ENDSEC
0
SECTION
2
BLOCKS
0
BLOCK
5
20
100
AcDbEntity
100
AcDbBlockBegin
2
*MODEL_SPACE
0
ENDBLK
5
21
100
AcDbEntity
100
AcDbBlockEnd
0
BLOCK
5
1C
100
AcDbEntity
100
AcDbBlockBegin
2
*PAPER_SPACE
0
ENDBLK
5
1D
100
AcDbEntity
100
AcDbBlockEnd
0
ENDSEC
0
SECTION
2
ENTITIES
0
CIRCLE
5
100
100
AcDbEntity
8
0
100
AcDbCircle
10
-39.999999999999801
20
145.92500000000007
30
1.7763568394002505e-14
40
1.6999999999999993
210
0
220
0
230
1
0
CIRCLE
5
101
100
AcDbEntity
8
0
100
AcDbCircle
10
40.000000000000135
20
-54.074999999999989
30
-1.7763568394002505e-14
40
1.6999999999999993
210
0
220
0
230
1
0
CIRCLE
5
102
100
AcDbEntity
8
0
100
AcDbCircle
10
40.000000000000135
20
145.92499999999998
30
-1.7763568394002505e-14
40
1.6999999999999993
210
0
220
0
230
1
0
CIRCLE
5
103
100
AcDbEntity
8
0
100
AcDbCircle
10
-39.999999999999829
20
54.574999999999996
30
1.7763568394002505e-14
40
1.6999999999999993
210
0
220
0
230
1
0
CIRCLE
5
104
100
AcDbEntity
8
0
100
AcDbCircle
10
-39.99999999999978
20
-54.074999999999989
30
1.7763568394002505e-14
40
1.6999999999999993
210
0
220
0
230
1
0
CIRCLE
5
105
100
AcDbEntity
8
0
100
AcDbCircle
10
40.000000000000128
20
54.574999999999996
30
-1.7763568394002505e-14
40
1.6999999999999993
210
0
220
0
230
1
0
CIRCLE
5
106
100
AcDbEntity
8
0
100
AcDbCircle
10
-40.000000000000071
20
-145.67499999999995
30
1.7763568394002505e-14
40
1.6999999999999993
210
0
220
0
230
1
0
CIRCLE
5
107
100
AcDbEntity
8
0
100
AcDbCircle
10
40.000000000000014
20
-145.67499999999995
30
-1.7763568394002505e-14
40
1.6999999999999993
210
0
220
0
230
1
0
LINE
5
108
100
AcDbEntity
8
0
100
AcDbLine
10
-50.000000000000178
20
58.575000000000003
30
0
11
-49.999999999999829
21
-64.074999999999989
31
0
0
ARC
5
109
100
AcDbEntity
8
0
100
AcDbCircle
10
-47.999999999999837
20
-64.074999999999989
30
0
40
1.9999999999999929
210
0
220
0
230
1
100
AcDbArc
50
180
51
270.00000000000023
0
LINE
5
110
100
AcDbEntity
8
0
100
AcDbLine
10
-47.999999999999829
20
-66.074999999999989
30
0
11
-36.999999999999844
21
-66.075000000000017
31
0
0
ARC
5
111
100
AcDbEntity
8
0
100
AcDbCircle
10
-36.999999999999858
20
-71.075000000000017
30
0
40
5.0000000000000133
210
0
220
-0
230
1
100
AcDbArc
50
0
51
89.999999999999844
0
LINE
5
112
100
AcDbEntity
8
0
100
AcDbLine
10
-31.999999999999847
20
-71.074999999999989
30
0
11
-31.999999999999808
21
-134.42499999999998
31
0
0
ARC
5
113
100
AcDbEntity
8
0
100
AcDbCircle
10
-36.999999999999844
20
-134.42499999999995
30
0
40
5.0000000000000355
210
-0
220
0
230
1
100
AcDbArc
50
270.00000000000017
51
360
0
LINE
5
114
100
AcDbEntity
8
0
100
AcDbLine
10
-36.999999999999829
20
-139.42499999999998
30
0
11
-48.000000000000192
21
-139.42499999999998
31
0
0
ARC
5
115
100
AcDbEntity
8
0
100
AcDbCircle
10
-48.000000000000199
20
-141.42499999999998
30
0
40
1.9999999999999929
210
0
220
-0
230
1
100
AcDbArc
50
89.999999999999801
51
180
0
LINE
5
116
100
AcDbEntity
8
0
100
AcDbLine
10
-50.000000000000199
20
-141.42499999999998
30
0
11
-50.000000000000178
21
-147.92500000000001
31
0
0
ARC
5
117
100
AcDbEntity
8
0
100
AcDbCircle
10
-46.000000000000185
20
-147.92500000000001
30
0
40
3.9999999999999947
210
0
220
0
230
1
100
AcDbArc
50
180
51
269.99999999999989
0
LINE
5
118
100
AcDbEntity
8
0
100
AcDbLine
10
-46.000000000000192
20
-151.92499999999998
30
0
11
46.000000000000142
21
-151.92499999999998
31
0
0
ARC
5
119
100
AcDbEntity
8
0
100
AcDbCircle
10
46.000000000000121
20
-147.92499999999995
30
0
40
4.0000000000000213
210
-0
220
0
230
1
100
AcDbArc
50
270.00000000000034
51
360
0
LINE
5
120
100
AcDbEntity
8
0
100
AcDbLine
10
50.000000000000142
20
-147.92500000000007
30
0
11
50.000000000000142
21
-141.42499999999998
31
0
0
ARC
5
121
100
AcDbEntity
8
0
100
AcDbCircle
10
48.000000000000156
20
-141.42499999999998
30
0
40
1.999999999999984
210
0
220
-0
230
1
100
AcDbArc
50
0
51
90.00000000000081
0
LINE
5
122
100
AcDbEntity
8
0
100
AcDbLine
10
48.000000000000128
20
-139.42499999999998
30
0
11
37.000000000000092
21
-139.42499999999998
31
0
0
ARC
5
123
100
AcDbEntity
8
0
100
AcDbCircle
10
37.000000000000107
20
-134.42499999999998
30
0
40
5.0000000000000044
210
0
220
0
230
1
100
AcDbArc
50
180
51
269.99999999999983
0
LINE
5
124
100
AcDbEntity
8
0
100
AcDbLine
10
32.000000000000099
20
-134.42499999999998
30
0
11
32.000000000000099
21
-71.074999999999989
31
0
0
ARC
5
125
100
AcDbEntity
8
0
100
AcDbCircle
10
37.000000000000135
20
-71.075000000000017
30
0
40
5.0000000000000355
210
0
220
0
230
1
100
AcDbArc
50
90.000000000000171
51
180
0
LINE
5
126
100
AcDbEntity
8
0
100
AcDbLine
10
37.000000000000121
20
-66.074999999999989
30
0
11
48.000000000000149
21
-66.074999999999989
31
0
0
ARC
5
127
100
AcDbEntity
8
0
100
AcDbCircle
10
48.000000000000178
20
-64.074999999999989
30
0
40
1.9999999999999929
210
0
220
0
230
1
100
AcDbArc
50
-90.00000000000081
51
0
0
LINE
5
128
100
AcDbEntity
8
0
100
AcDbLine
10
50.000000000000171
20
-64.074999999999989
30
0
11
50.000000000000156
21
58.575000000000017
31
0
0
ARC
5
129
100
AcDbEntity
8
0
100
AcDbCircle
10
48.000000000000149
20
58.574999999999989
30
0
40
2.0000000000000107
210
0
220
-0
230
1
100
AcDbArc
50
0
51
89.999999999999801
0
LINE
5
130
100
AcDbEntity
8
0
100
AcDbLine
10
48.000000000000156
20
60.575000000000003
30
0
11
37.000000000000206
21
60.57500000000001
31
0
0
ARC
5
131
100
AcDbEntity
8
0
100
AcDbCircle
10
37.000000000000213
20
65.575000000000017
30
0
40
5.0000000000000044
210
0
220
0
230
1
100
AcDbArc
50
180
51
269.99999999999989
0
LINE
5
132
100
AcDbEntity
8
0
100
AcDbLine
10
32.000000000000213
20
65.575000000000017
30
0
11
32.000000000000156
21
128.92499999999998
31
0
0
ARC
5
133
100
AcDbEntity
8
0
100
AcDbCircle
10
37.000000000000163
20
128.92499999999998
30
0
40
5
210
0
220
0
230
1
100
AcDbArc
50
90.000000000000071
51
180
0
LINE
5
134
100
AcDbEntity
8
0
100
AcDbLine
10
37.000000000000156
20
133.92499999999998
30
0
11
48.000000000000185
21
133.92499999999998
31
0
0
ARC
5
135
100
AcDbEntity
8
0
100
AcDbCircle
10
48.000000000000178
20
135.92499999999998
30
0
40
2.0000000000000107
210
-0
220
0
230
1
100
AcDbArc
50
-89.999999999999801
51
0
0
LINE
5
136
100
AcDbEntity
8
0
100
AcDbLine
10
50.000000000000178
20
135.92499999999998
30
0
11
50.000000000000199
21
147.92499999999998
31
0
0
ARC
5
137
100
AcDbEntity
8
0
100
AcDbCircle
10
46.000000000000192
20
147.92499999999998
30
0
40
4.0000000000000036
210
0
220
-0
230
1
100
AcDbArc
50
0
51
90.000000000000313
0
LINE
5
138
100
AcDbEntity
8
0
100
AcDbLine
10
46.000000000000171
20
151.92499999999998
30
0
11
-45.999999999999837
21
151.92499999999998
31
0
0
ARC
5
139
100
AcDbEntity
8
0
100
AcDbCircle
10
-45.999999999999844
20
147.92500000000001
30
0
40
3.9999999999999858
210
0
220
-0
230
1
100
AcDbArc
50
89.999999999999901
51
180
0
LINE
5
140
100
AcDbEntity
8
0
100
AcDbLine
10
-49.999999999999844
20
147.92499999999998
30
0
11
-49.999999999999851
21
135.92499999999998
31
0
0
ARC
5
141
100
AcDbEntity
8
0
100
AcDbCircle
10
-47.999999999999837
20
135.92499999999998
30
0
40
2.0000000000000107
210
0
220
0
230
1
100
AcDbArc
50
180
51
270
0
LINE
5
142
100
AcDbEntity
8
0
100
AcDbLine
10
-47.999999999999837
20
133.92499999999998
30
0
11
-36.999999999999858
21
133.92499999999998
31
0
0
ARC
5
143
100
AcDbEntity
8
0
100
AcDbCircle
10
-36.999999999999844
20
128.92499999999998
30
0
40
4.9999999999999956
210
0
220
-0
230
1
100
AcDbArc
50
0
51
90.000000000000171
0
LINE
5
144
100
AcDbEntity
8
0
100
AcDbLine
10
-31.999999999999847
20
128.92499999999998
30
0
11
-31.999999999999837
21
65.575000000000003
31
0
0
ARC
5
145
100
AcDbEntity
8
0
100
AcDbCircle
10
-36.999999999999844
20
65.575000000000003
30
0
40
5.0000000000000089
210
0
220
0
230
1
100
AcDbArc
50
-90
51
0
0
LINE
5
146
100
AcDbEntity
8
0
100
AcDbLine
10
-36.999999999999844
20
60.574999999999989
30
0
11
-48.000000000000156
21
60.575000000000003
31
0
0
ARC
5
147
100
AcDbEntity
8
0
100
AcDbCircle
10
-48.000000000000185
20
58.575000000000003
30
0
40
2.0000000000000018
210
0
220
-0
230
1
100
AcDbArc
50
89.99999999999919
51
180
0
ENDSEC
0
SECTION
2
OBJECTS
0
DICTIONARY
5
C
100
AcDbDictionary
3
ACAD_GROUP
350
D
3
ACAD_MLINESTYLE
350
17
0
DICTIONARY
5
D
100
AcDbDictionary
0
DICTIONARY
5
1A
330
C
100
AcDbDictionary
0
DICTIONARY
5
17
100
AcDbDictionary
0
ENDSEC
0
EOF
